# Blender v2.82 (sub 7) OBJ File: 'baddyQueue#4.blend'
# www.blender.org
mtllib baddyQueue#4.mtl
o Chip_-_1_Point.042_Circle.112
v -0.882707 0.210001 0.275582
v 0.000000 0.210000 0.100000
v -0.900000 0.210001 0.100000
v 0.882707 0.209999 0.275581
v 0.831492 0.209999 0.444415
v -0.831492 0.210001 0.444415
v 0.900000 0.209999 0.099999
v -0.748323 0.210001 0.600014
v 0.882707 0.209999 -0.075582
v -0.636396 0.210000 0.736396
v 0.831491 0.209999 -0.244416
v -0.500013 0.210000 0.848323
v 0.748322 0.210000 -0.400014
v -0.344415 0.210000 0.931492
v -0.175581 0.210000 -0.782706
v 0.000000 0.210000 -0.800000
v 0.636395 0.210000 -0.536397
v -0.175581 0.210000 0.982707
v -0.344415 0.210000 -0.731491
v 0.500012 0.210000 -0.648323
v 0.000000 0.210000 1.000000
v -0.500013 0.210000 -0.648322
v 0.344414 0.210000 -0.731492
v 0.175582 0.210000 0.982707
v -0.636396 0.210000 -0.536396
v 0.175580 0.210000 -0.782707
v 0.344416 0.210000 0.931492
v -0.748323 0.210001 -0.400013
v 0.500014 0.210000 0.848323
v -0.831491 0.210001 -0.244415
v 0.636397 0.210000 0.736396
v -0.882707 0.210001 -0.075581
v 0.748323 0.210000 0.600013
v -0.195090 0.010000 -0.880785
v 0.000000 0.010000 -0.900000
v 0.000000 0.010000 -0.800000
v -0.175581 0.010000 -0.782706
v 0.707106 0.010000 -0.607107
v 0.831469 0.009999 -0.455571
v 0.748322 0.010000 -0.400014
v 0.636395 0.010000 -0.536397
v -0.195090 0.010000 1.080786
v -0.382683 0.010000 1.023880
v -0.344415 0.010000 0.931492
v -0.175581 0.010000 0.982707
v -0.382683 0.010000 -0.823879
v -0.344415 0.010000 -0.731491
v 0.555569 0.010000 -0.731470
v 0.500012 0.010000 -0.648323
v 0.000000 0.010000 1.100000
v 0.000000 0.010000 1.000000
v -0.555570 0.010000 -0.731469
v -0.500013 0.010000 -0.648322
v 0.382682 0.010000 -0.823880
v 0.344414 0.010000 -0.731492
v 0.195091 0.010000 1.080786
v 0.175582 0.010000 0.982707
v -0.707107 0.010000 -0.607106
v -0.636396 0.010000 -0.536396
v 0.195089 0.010000 -0.880785
v 0.175580 0.010000 -0.782707
v 0.382684 0.010000 1.023880
v 0.344415 0.010000 0.931492
v -0.831470 0.010001 -0.455570
v -0.748323 0.010000 -0.400013
v 0.555571 0.010000 0.931470
v 0.500014 0.010000 0.848323
v -0.923880 0.010001 -0.282683
v -0.831492 0.010001 -0.244415
v 0.707107 0.010000 0.807107
v 0.636397 0.010000 0.736396
v -0.980785 0.010001 -0.095090
v -0.882707 0.010001 -0.075581
v 0.831470 0.009999 0.655570
v 0.748323 0.010000 0.600013
v -1.000000 0.010001 0.100000
v -0.900000 0.010001 0.100000
v 0.923880 0.009999 0.482683
v 0.831492 0.009999 0.444415
v -0.980785 0.010001 0.295091
v -0.882707 0.010001 0.275582
v 0.980785 0.009999 0.295090
v 0.882707 0.009999 0.275581
v -0.923880 0.010001 0.482684
v -0.831492 0.010001 0.444415
v 1.000000 0.009999 0.099999
v 0.900000 0.009999 0.099999
v -0.831470 0.010001 0.655571
v -0.748323 0.010000 0.600014
v 0.980785 0.009999 -0.095091
v 0.882707 0.009999 -0.075582
v -0.707107 0.010000 0.807107
v -0.636396 0.010000 0.736396
v 0.923879 0.009999 -0.282684
v 0.831491 0.009999 -0.244416
v -0.555570 0.010000 0.931470
v -0.500013 0.010000 0.848323
v -0.195090 0.210000 -0.880785
v 0.000000 0.210000 -0.900000
v 0.707106 0.210000 -0.607107
v 0.831469 0.209999 -0.455571
v -0.195090 0.210000 1.080786
v -0.382683 0.210000 1.023880
v -0.382683 0.210000 -0.823879
v 0.555569 0.210000 -0.731470
v 0.000000 0.210000 1.100000
v -0.555570 0.210000 -0.731469
v 0.382682 0.210000 -0.823880
v 0.195091 0.210000 1.080786
v -0.707107 0.210000 -0.607106
v 0.195089 0.210000 -0.880785
v 0.382684 0.210000 1.023880
v -0.831470 0.210001 -0.455570
v 0.555571 0.210000 0.931470
v -0.923879 0.210001 -0.282683
v 0.707107 0.210000 0.807107
v -0.980785 0.210001 -0.095090
v 0.831470 0.209999 0.655570
v -1.000000 0.210001 0.100000
v 0.923880 0.209999 0.482683
v -0.980785 0.210001 0.295091
v 0.980786 0.209999 0.295090
v -0.923879 0.210001 0.482684
v 1.000000 0.209999 0.099999
v -0.831470 0.210001 0.655571
v 0.980785 0.209999 -0.095091
v -0.707107 0.210000 0.807107
v 0.923879 0.209999 -0.282684
v -0.555570 0.210000 0.931470
v 0.000000 0.010000 0.100000
vt 0.334444 0.894852
vt 0.491579 0.900989
vt 0.331658 0.901101
vt 0.648059 0.894740
vt 0.638555 0.888715
vt 0.343128 0.888827
vt 0.651500 0.900989
vt 0.357547 0.883248
vt 0.648878 0.907238
vt 0.377209 0.878450
vt 0.640030 0.913263
vt 0.401132 0.874433
vt 0.625611 0.918730
vt 0.428659 0.871420
vt 0.462413 0.932455
vt 0.493545 0.933013
vt 0.606112 0.923640
vt 0.458481 0.869635
vt 0.432264 0.930670
vt 0.582026 0.927657
vt 0.489613 0.868965
vt 0.404409 0.927768
vt 0.554662 0.930558
vt 0.520909 0.869635
vt 0.379995 0.923752
vt 0.524841 0.932455
vt 0.550894 0.871420
vt 0.359841 0.918842
vt 0.578749 0.874321
vt 0.344603 0.913374
vt 0.603327 0.878338
vt 0.335263 0.907349
vt 0.623481 0.883136
vt 0.832655 0.004905
vt 0.835855 0.004805
vt 0.835855 0.004905
vt 0.832755 0.005005
vt 0.847555 0.006305
vt 0.849655 0.007105
vt 0.849355 0.007205
vt 0.847355 0.006405
vt 0.832155 0.014705
vt 0.829055 0.014405
vt 0.829155 0.014305
vt 0.832255 0.014605
vt 0.829455 0.005205
vt 0.829655 0.005305
vt 0.845055 0.005705
vt 0.844955 0.005805
vt 0.835355 0.014805
vt 0.835355 0.014705
vt 0.826555 0.005605
vt 0.826755 0.005705
vt 0.842255 0.005205
vt 0.842155 0.005305
vt 0.838655 0.014705
vt 0.838555 0.014605
vt 0.824055 0.006205
vt 0.824255 0.006305
vt 0.839155 0.004905
vt 0.839055 0.005005
vt 0.841755 0.014505
vt 0.841655 0.014405
vt 0.821955 0.007005
vt 0.822255 0.007105
vt 0.844655 0.014005
vt 0.844455 0.013905
vt 0.820355 0.007805
vt 0.820655 0.007905
vt 0.847255 0.013405
vt 0.846955 0.013305
vt 0.819355 0.008805
vt 0.819655 0.008805
vt 0.849355 0.012605
vt 0.849055 0.012605
vt 0.818955 0.009805
vt 0.819355 0.009805
vt 0.850955 0.011805
vt 0.850655 0.011805
vt 0.819255 0.010705
vt 0.819555 0.010705
vt 0.851955 0.010905
vt 0.851555 0.010805
vt 0.820155 0.011705
vt 0.820455 0.011605
vt 0.852355 0.009905
vt 0.851955 0.009905
vt 0.821655 0.012505
vt 0.821955 0.012505
vt 0.852055 0.008905
vt 0.851755 0.008905
vt 0.823655 0.013305
vt 0.823955 0.013205
vt 0.851155 0.008005
vt 0.850855 0.008005
vt 0.826155 0.013905
vt 0.826355 0.013805
vt 0.934954 0.006024
vt 0.934954 0.005924
vt 0.938254 0.005824
vt 0.938254 0.005924
vt 0.950054 0.007424
vt 0.950154 0.007424
vt 0.952254 0.008224
vt 0.952054 0.008224
vt 0.934354 0.015824
vt 0.934354 0.015924
vt 0.931154 0.015624
vt 0.931254 0.015524
vt 0.931854 0.006324
vt 0.931654 0.006224
vt 0.947554 0.006824
vt 0.947654 0.006724
vt 0.937654 0.015924
vt 0.937654 0.016024
vt 0.928854 0.006724
vt 0.928754 0.006624
vt 0.944654 0.006324
vt 0.944754 0.006224
vt 0.940954 0.015924
vt 0.940954 0.015924
vt 0.926354 0.007324
vt 0.926154 0.007224
vt 0.941554 0.006024
vt 0.941554 0.005924
vt 0.944054 0.015624
vt 0.944154 0.015724
vt 0.924154 0.008124
vt 0.923954 0.008024
vt 0.946954 0.015124
vt 0.947154 0.015224
vt 0.922554 0.008924
vt 0.922354 0.008924
vt 0.949554 0.014524
vt 0.949754 0.014624
vt 0.921554 0.009924
vt 0.921254 0.009824
vt 0.951654 0.013824
vt 0.951954 0.013824
vt 0.921154 0.010824
vt 0.920854 0.010824
vt 0.953354 0.012924
vt 0.953554 0.013024
vt 0.921454 0.011824
vt 0.921154 0.011824
vt 0.954354 0.012024
vt 0.954554 0.012024
vt 0.922354 0.012824
vt 0.922054 0.012824
vt 0.954754 0.011024
vt 0.954954 0.011024
vt 0.923854 0.013624
vt 0.923654 0.013724
vt 0.954454 0.010024
vt 0.954754 0.010024
vt 0.925854 0.014424
vt 0.925654 0.014524
vt 0.953554 0.009124
vt 0.953854 0.009024
vt 0.928354 0.015024
vt 0.928254 0.015124
vt 0.832655 0.004905
vt 0.835955 0.004805
vt 0.847755 0.006305
vt 0.849755 0.007105
vt 0.934454 0.015824
vt 0.931354 0.015524
vt 0.829555 0.005205
vt 0.845255 0.005705
vt 0.937654 0.015924
vt 0.777169 0.007077
vt 0.777169 0.007077
vt 0.780169 0.006677
vt 0.780069 0.006677
vt 0.842355 0.005205
vt 0.940954 0.015824
vt 0.774669 0.007677
vt 0.774669 0.007677
vt 0.839255 0.004905
vt 0.944054 0.015624
vt 0.772569 0.008477
vt 0.772469 0.008477
vt 0.946954 0.015124
vt 0.770969 0.009277
vt 0.770869 0.009277
vt 0.840200 0.021245
vt 0.840200 0.021245
vt 0.837600 0.021845
vt 0.837600 0.021845
vt 0.769969 0.010277
vt 0.769869 0.010277
vt 0.842300 0.012605
vt 0.842300 0.012705
vt 0.840200 0.013405
vt 0.840200 0.013405
vt 0.921254 0.010924
vt 0.921654 0.009924
vt 0.843900 0.011805
vt 0.844000 0.011805
vt 0.921554 0.011824
vt 0.844900 0.010905
vt 0.845000 0.010905
vt 0.922454 0.012824
vt 0.845300 0.009905
vt 0.845400 0.009905
vt 0.923954 0.013624
vt 0.852155 0.008905
vt 0.852455 0.009905
vt 0.925954 0.014424
vt 0.851255 0.008005
vt 0.928454 0.015024
vt 0.324193 0.895045
vt 0.327609 0.901249
vt 0.168197 0.901359
vt 0.011551 0.895267
vt 0.020173 0.889285
vt 0.314758 0.889063
vt 0.008786 0.901470
vt 0.299630 0.883525
vt 0.012202 0.907673
vt 0.279622 0.878761
vt 0.021637 0.913655
vt 0.255223 0.874774
vt 0.036764 0.919194
vt 0.227407 0.871893
vt 0.201056 0.932597
vt 0.169987 0.933262
vt 0.056772 0.923957
vt 0.197477 0.870010
vt 0.230823 0.930825
vt 0.081172 0.927945
vt 0.166245 0.869456
vt 0.258313 0.927834
vt 0.108987 0.930825
vt 0.135339 0.870121
vt 0.282225 0.923846
vt 0.138918 0.932708
vt 0.105409 0.872004
vt 0.301745 0.918972
vt 0.078081 0.874884
vt 0.316059 0.913434
vt 0.054170 0.878872
vt 0.324843 0.907452
vt 0.034650 0.883746
vn 0.0000 1.0000 0.0000
vn -0.1420 -0.6857 -0.7139
vn 0.0000 -0.6857 -0.7279
vn -0.0000 -1.0000 -0.0000
vn 0.5147 -0.6857 -0.5147
vn 0.6052 -0.6857 -0.4044
vn -0.1420 -0.6857 0.7139
vn -0.2786 -0.6857 0.6725
vn -0.2786 -0.6857 -0.6725
vn 0.4044 -0.6857 -0.6052
vn -0.0000 -0.6857 0.7279
vn -0.4044 -0.6857 -0.6052
vn 0.2785 -0.6857 -0.6725
vn 0.1420 -0.6857 0.7139
vn -0.5147 -0.6857 -0.5147
vn 0.1420 -0.6857 -0.7139
vn 0.2786 -0.6857 0.6725
vn -0.6052 -0.6857 -0.4044
vn 0.4044 -0.6857 0.6052
vn -0.6725 -0.6857 -0.2785
vn 0.5147 -0.6857 0.5147
vn -0.7139 -0.6857 -0.1420
vn 0.6052 -0.6857 0.4044
vn -0.7279 -0.6857 -0.0000
vn 0.6725 -0.6857 0.2786
vn -0.7139 -0.6857 0.1420
vn 0.7139 -0.6857 0.1420
vn -0.6725 -0.6857 0.2785
vn 0.7279 -0.6857 -0.0000
vn -0.6052 -0.6857 0.4044
vn 0.7139 -0.6857 -0.1420
vn -0.5147 -0.6857 0.5147
vn 0.6725 -0.6857 -0.2786
vn -0.4044 -0.6857 0.6052
vn -0.1420 0.6857 -0.7139
vn 0.0000 0.6857 -0.7279
vn 0.5147 0.6857 -0.5147
vn 0.6052 0.6857 -0.4044
vn -0.1420 0.6857 0.7139
vn -0.2786 0.6857 0.6725
vn -0.2786 0.6857 -0.6725
vn 0.4044 0.6857 -0.6052
vn -0.0000 0.6857 0.7279
vn -0.4044 0.6857 -0.6052
vn 0.2785 0.6857 -0.6725
vn 0.1420 0.6857 0.7139
vn -0.5147 0.6857 -0.5147
vn 0.1420 0.6857 -0.7139
vn 0.2786 0.6857 0.6725
vn -0.6052 0.6857 -0.4044
vn 0.4044 0.6857 0.6052
vn -0.6725 0.6857 -0.2785
vn 0.5147 0.6857 0.5147
vn -0.7139 0.6857 -0.1420
vn 0.6052 0.6857 0.4044
vn -0.7279 0.6857 -0.0000
vn 0.6725 0.6857 0.2785
vn -0.7139 0.6857 0.1420
vn 0.7139 0.6857 0.1420
vn -0.6725 0.6857 0.2785
vn 0.7279 0.6857 -0.0000
vn -0.6052 0.6857 0.4044
vn 0.7139 0.6857 -0.1420
vn -0.5147 0.6857 0.5147
vn 0.6725 0.6857 -0.2786
vn -0.4044 0.6857 0.6052
usemtl Chip_Front_HQ
s 1
f 1/1/1 2/2/1 3/3/1
f 4/4/1 2/2/1 5/5/1
f 6/6/1 2/2/1 1/1/1
f 7/7/1 2/2/1 4/4/1
f 8/8/1 2/2/1 6/6/1
f 9/9/1 2/2/1 7/7/1
f 10/10/1 2/2/1 8/8/1
f 11/11/1 2/2/1 9/9/1
f 12/12/1 2/2/1 10/10/1
f 13/13/1 2/2/1 11/11/1
f 14/14/1 2/2/1 12/12/1
f 15/15/1 2/2/1 16/16/1
f 17/17/1 2/2/1 13/13/1
f 18/18/1 2/2/1 14/14/1
f 19/19/1 2/2/1 15/15/1
f 20/20/1 2/2/1 17/17/1
f 21/21/1 2/2/1 18/18/1
f 22/22/1 2/2/1 19/19/1
f 23/23/1 2/2/1 20/20/1
f 24/24/1 2/2/1 21/21/1
f 25/25/1 2/2/1 22/22/1
f 26/26/1 2/2/1 23/23/1
f 27/27/1 2/2/1 24/24/1
f 28/28/1 2/2/1 25/25/1
f 16/16/1 2/2/1 26/26/1
f 29/29/1 2/2/1 27/27/1
f 30/30/1 2/2/1 28/28/1
f 31/31/1 2/2/1 29/29/1
f 32/32/1 2/2/1 30/30/1
f 33/33/1 2/2/1 31/31/1
f 3/3/1 2/2/1 32/32/1
f 5/5/1 2/2/1 33/33/1
usemtl Chip_Edge_HQ
f 34/34/2 35/35/3 36/36/4 37/37/4
f 38/38/5 39/39/6 40/40/4 41/41/4
f 42/42/7 43/43/8 44/44/4 45/45/4
f 46/46/9 34/34/2 37/37/4 47/47/4
f 48/48/10 38/38/5 41/41/4 49/49/4
f 50/50/11 42/42/7 45/45/4 51/51/4
f 52/52/12 46/46/9 47/47/4 53/53/4
f 54/54/13 48/48/10 49/49/4 55/55/4
f 56/56/14 50/50/11 51/51/4 57/57/4
f 58/58/15 52/52/12 53/53/4 59/59/4
f 60/60/16 54/54/13 55/55/4 61/61/4
f 62/62/17 56/56/14 57/57/4 63/63/4
f 64/64/18 58/58/15 59/59/4 65/65/4
f 35/35/3 60/60/16 61/61/4 36/36/4
f 66/66/19 62/62/17 63/63/4 67/67/4
f 68/68/20 64/64/18 65/65/4 69/69/4
f 70/70/21 66/66/19 67/67/4 71/71/4
f 72/72/22 68/68/20 69/69/4 73/73/4
f 74/74/23 70/70/21 71/71/4 75/75/4
f 76/76/24 72/72/22 73/73/4 77/77/4
f 78/78/25 74/74/23 75/75/4 79/79/4
f 80/80/26 76/76/24 77/77/4 81/81/4
f 82/82/27 78/78/25 79/79/4 83/83/4
f 84/84/28 80/80/26 81/81/4 85/85/4
f 86/86/29 82/82/27 83/83/4 87/87/4
f 88/88/30 84/84/28 85/85/4 89/89/4
f 90/90/31 86/86/29 87/87/4 91/91/4
f 92/92/32 88/88/30 89/89/4 93/93/4
f 94/94/33 90/90/31 91/91/4 95/95/4
f 96/96/34 92/92/32 93/93/4 97/97/4
f 39/39/6 94/94/33 95/95/4 40/40/4
f 43/43/8 96/96/34 97/97/4 44/44/4
f 98/98/35 15/99/1 16/100/1 99/101/36
f 100/102/37 17/103/1 13/104/1 101/105/38
f 102/106/39 18/107/1 14/108/1 103/109/40
f 104/110/41 19/111/1 15/99/1 98/98/35
f 105/112/42 20/113/1 17/103/1 100/102/37
f 106/114/43 21/115/1 18/107/1 102/106/39
f 107/116/44 22/117/1 19/111/1 104/110/41
f 108/118/45 23/119/1 20/113/1 105/112/42
f 109/120/46 24/121/1 21/115/1 106/114/43
f 110/122/47 25/123/1 22/117/1 107/116/44
f 111/124/48 26/125/1 23/119/1 108/118/45
f 112/126/49 27/127/1 24/121/1 109/120/46
f 113/128/50 28/129/1 25/123/1 110/122/47
f 99/101/36 16/100/1 26/125/1 111/124/48
f 114/130/51 29/131/1 27/127/1 112/126/49
f 115/132/52 30/133/1 28/129/1 113/128/50
f 116/134/53 31/135/1 29/131/1 114/130/51
f 117/136/54 32/137/1 30/133/1 115/132/52
f 118/138/55 33/139/1 31/135/1 116/134/53
f 119/140/56 3/141/1 32/137/1 117/136/54
f 120/142/57 5/143/1 33/139/1 118/138/55
f 121/144/58 1/145/1 3/141/1 119/140/56
f 122/146/59 4/147/1 5/143/1 120/142/57
f 123/148/60 6/149/1 1/145/1 121/144/58
f 124/150/61 7/151/1 4/147/1 122/146/59
f 125/152/62 8/153/1 6/149/1 123/148/60
f 126/154/63 9/155/1 7/151/1 124/150/61
f 127/156/64 10/157/1 8/153/1 125/152/62
f 128/158/65 11/159/1 9/155/1 126/154/63
f 129/160/66 12/161/1 10/157/1 127/156/64
f 101/105/38 13/104/1 11/159/1 128/158/65
f 103/109/40 14/108/1 12/161/1 129/160/66
f 34/34/2 98/162/35 99/163/36 35/35/3
f 38/38/5 100/164/37 101/165/38 39/39/6
f 42/166/7 102/106/39 103/109/40 43/167/8
f 46/46/9 104/168/41 98/162/35 34/34/2
f 48/48/10 105/169/42 100/164/37 38/38/5
f 50/170/11 106/114/43 102/106/39 42/166/7
f 52/171/12 107/172/44 104/173/41 46/174/9
f 54/54/13 108/175/45 105/169/42 48/48/10
f 56/176/14 109/120/46 106/114/43 50/170/11
f 58/177/15 110/178/47 107/172/44 52/171/12
f 60/60/16 111/179/48 108/175/45 54/54/13
f 62/180/17 112/126/49 109/120/46 56/176/14
f 64/181/18 113/182/50 110/178/47 58/177/15
f 35/35/3 99/163/36 111/179/48 60/60/16
f 66/183/19 114/130/51 112/126/49 62/180/17
f 68/184/20 115/185/52 113/182/50 64/181/18
f 70/186/21 116/187/53 114/188/51 66/189/19
f 72/190/22 117/191/54 115/185/52 68/184/20
f 74/192/23 118/193/55 116/194/53 70/195/21
f 76/196/24 119/140/56 117/136/54 72/197/22
f 78/198/25 120/199/57 118/193/55 74/192/23
f 80/200/26 121/144/58 119/140/56 76/196/24
f 82/201/27 122/202/59 120/199/57 78/198/25
f 84/203/28 123/148/60 121/144/58 80/200/26
f 86/204/29 124/205/61 122/202/59 82/201/27
f 88/206/30 125/152/62 123/148/60 84/203/28
f 90/90/31 126/207/63 124/208/61 86/86/29
f 92/209/32 127/156/64 125/152/62 88/206/30
f 94/94/33 128/210/65 126/207/63 90/90/31
f 96/211/34 129/160/66 127/156/64 92/209/32
f 39/39/6 101/165/38 128/210/65 94/94/33
f 43/167/8 103/109/40 129/160/66 96/211/34
usemtl Chip_Back_HQ
f 81/212/4 77/213/4 130/214/4
f 83/215/4 79/216/4 130/214/4
f 85/217/4 81/212/4 130/214/4
f 87/218/4 83/215/4 130/214/4
f 89/219/4 85/217/4 130/214/4
f 91/220/4 87/218/4 130/214/4
f 93/221/4 89/219/4 130/214/4
f 95/222/4 91/220/4 130/214/4
f 97/223/4 93/221/4 130/214/4
f 40/224/4 95/222/4 130/214/4
f 44/225/4 97/223/4 130/214/4
f 37/226/4 36/227/4 130/214/4
f 41/228/4 40/224/4 130/214/4
f 45/229/4 44/225/4 130/214/4
f 47/230/4 37/226/4 130/214/4
f 49/231/4 41/228/4 130/214/4
f 51/232/4 45/229/4 130/214/4
f 53/233/4 47/230/4 130/214/4
f 55/234/4 49/231/4 130/214/4
f 57/235/4 51/232/4 130/214/4
f 59/236/4 53/233/4 130/214/4
f 61/237/4 55/234/4 130/214/4
f 63/238/4 57/235/4 130/214/4
f 65/239/4 59/236/4 130/214/4
f 36/227/4 61/237/4 130/214/4
f 67/240/4 63/238/4 130/214/4
f 69/241/4 65/239/4 130/214/4
f 71/242/4 67/240/4 130/214/4
f 73/243/4 69/241/4 130/214/4
f 75/244/4 71/242/4 130/214/4
f 77/213/4 73/243/4 130/214/4
f 79/216/4 75/244/4 130/214/4
