# Blender v2.82 (sub 7) OBJ File: 'dayToken.blend'
# www.blender.org
mtllib DayCounter.mtl
o Chip_-_1_Point.043_Circle.117
v -0.882707 0.100001 0.175581
v 0.000000 0.100000 -0.000000
v -0.900000 0.100001 -0.000000
v 0.882707 0.099999 0.175581
v 0.831492 0.099999 0.344415
v -0.831492 0.100001 0.344415
v 0.900000 0.099999 -0.000001
v -0.748323 0.100001 0.500014
v 0.882707 0.099999 -0.175582
v -0.636396 0.100000 0.636396
v 0.831491 0.099999 -0.344416
v -0.500013 0.100000 0.748323
v 0.748322 0.100000 -0.500014
v -0.344415 0.100000 0.831492
v -0.175581 0.100000 -0.882706
v 0.000000 0.100000 -0.900000
v 0.636395 0.100000 -0.636397
v -0.175581 0.100000 0.882707
v -0.344415 0.100000 -0.831491
v 0.500012 0.100000 -0.748323
v 0.000000 0.100000 0.900000
v -0.500013 0.100000 -0.748322
v 0.344414 0.100000 -0.831492
v 0.175582 0.100000 0.882707
v -0.636396 0.100000 -0.636396
v 0.175580 0.100000 -0.882707
v 0.344416 0.100000 0.831492
v -0.748323 0.100001 -0.500013
v 0.500014 0.100000 0.748323
v -0.831491 0.100001 -0.344415
v 0.636397 0.100000 0.636396
v -0.882707 0.100001 -0.175581
v 0.748323 0.100000 0.500013
v -0.195090 -0.100000 -0.980785
v 0.000000 -0.100000 -1.000000
v 0.000000 -0.100000 -0.900000
v -0.175581 -0.100000 -0.882706
v 0.707106 -0.100000 -0.707107
v 0.831469 -0.100001 -0.555571
v 0.748322 -0.100000 -0.500014
v 0.636395 -0.100000 -0.636397
v -0.195090 -0.100000 0.980786
v -0.382683 -0.100000 0.923880
v -0.344415 -0.100000 0.831492
v -0.175581 -0.100000 0.882707
v -0.382683 -0.100000 -0.923879
v -0.344415 -0.100000 -0.831491
v 0.555569 -0.100000 -0.831470
v 0.500012 -0.100000 -0.748323
v 0.000000 -0.100000 1.000000
v 0.000000 -0.100000 0.900000
v -0.555570 -0.100000 -0.831469
v -0.500013 -0.100000 -0.748322
v 0.382682 -0.100000 -0.923880
v 0.344414 -0.100000 -0.831492
v 0.195091 -0.100000 0.980786
v 0.175582 -0.100000 0.882707
v -0.707107 -0.100000 -0.707106
v -0.636396 -0.100000 -0.636396
v 0.195089 -0.100000 -0.980785
v 0.175580 -0.100000 -0.882707
v 0.382684 -0.100000 0.923880
v 0.344415 -0.100000 0.831492
v -0.831470 -0.099999 -0.555570
v -0.748323 -0.100000 -0.500013
v 0.555571 -0.100000 0.831470
v 0.500014 -0.100000 0.748323
v -0.923880 -0.099999 -0.382684
v -0.831492 -0.099999 -0.344416
v 0.707107 -0.100000 0.707107
v 0.636397 -0.100000 0.636396
v -0.980785 -0.099999 -0.195091
v -0.882707 -0.099999 -0.175582
v 0.831470 -0.100001 0.555570
v 0.748323 -0.100000 0.500013
v -1.000000 -0.099999 -0.000001
v -0.900000 -0.099999 -0.000001
v 0.923880 -0.100001 0.382683
v 0.831492 -0.100001 0.344414
v -0.980785 -0.099999 0.195090
v -0.882707 -0.099999 0.175581
v 0.980785 -0.100001 0.195089
v 0.882707 -0.100001 0.175580
v -0.923880 -0.099999 0.382683
v -0.831492 -0.099999 0.344414
v 1.000000 -0.100001 -0.000002
v 0.900000 -0.100001 -0.000002
v -0.831470 -0.099999 0.555571
v -0.748323 -0.100000 0.500014
v 0.980785 -0.100001 -0.195092
v 0.882707 -0.100001 -0.175583
v -0.707107 -0.100000 0.707107
v -0.636396 -0.100000 0.636396
v 0.923879 -0.100001 -0.382685
v 0.831491 -0.100001 -0.344416
v -0.555570 -0.100000 0.831470
v -0.500013 -0.100000 0.748323
v -0.195090 0.100000 -0.980785
v 0.000000 0.100000 -1.000000
v 0.707106 0.100000 -0.707107
v 0.831469 0.099999 -0.555571
v -0.195090 0.100000 0.980786
v -0.382683 0.100000 0.923880
v -0.382683 0.100000 -0.923879
v 0.555569 0.100000 -0.831470
v 0.000000 0.100000 1.000000
v -0.555570 0.100000 -0.831469
v 0.382682 0.100000 -0.923880
v 0.195091 0.100000 0.980786
v -0.707107 0.100000 -0.707106
v 0.195089 0.100000 -0.980785
v 0.382684 0.100000 0.923880
v -0.831470 0.100001 -0.555570
v 0.555571 0.100000 0.831470
v -0.923879 0.100001 -0.382683
v 0.707107 0.100000 0.707107
v -0.980785 0.100001 -0.195090
v 0.831470 0.099999 0.555570
v -1.000000 0.100001 -0.000000
v 0.923880 0.099999 0.382683
v -0.980785 0.100001 0.195091
v 0.980786 0.099999 0.195090
v -0.923879 0.100001 0.382684
v 1.000000 0.099999 -0.000001
v -0.831470 0.100001 0.555571
v 0.980785 0.099999 -0.195091
v -0.707107 0.100000 0.707107
v 0.923879 0.099999 -0.382684
v -0.555570 0.100000 0.831470
v 0.000000 -0.100000 -0.000001
vt 0.802900 0.965000
vt 0.899700 0.970600
vt 0.801300 0.970700
vt 0.996000 0.964800
vt 0.990200 0.959400
vt 0.808300 0.959500
vt 0.998200 0.970500
vt 0.817200 0.954500
vt 0.996500 0.976200
vt 0.829300 0.950000
vt 0.991100 0.981700
vt 0.844000 0.946400
vt 0.982300 0.986700
vt 0.860900 0.943700
vt 0.881700 0.999200
vt 0.901000 0.999800
vt 0.970200 0.991200
vt 0.879300 0.942000
vt 0.863200 0.997600
vt 0.955400 0.994800
vt 0.898500 0.941400
vt 0.846100 0.994900
vt 0.938500 0.997500
vt 0.917700 0.942000
vt 0.831000 0.991300
vt 0.920100 0.999200
vt 0.936300 0.943600
vt 0.818600 0.986900
vt 0.953400 0.946300
vt 0.809300 0.981800
vt 0.968500 0.949900
vt 0.803400 0.976400
vt 0.980900 0.954300
vt 0.715100 0.041900
vt 0.718400 0.041900
vt 0.718400 0.042000
vt 0.715200 0.042000
vt 0.730100 0.043400
vt 0.732100 0.044100
vt 0.731800 0.044200
vt 0.729800 0.043400
vt 0.714600 0.051700
vt 0.711500 0.051400
vt 0.711600 0.051300
vt 0.714700 0.051600
vt 0.712000 0.042200
vt 0.712100 0.042300
vt 0.727600 0.042700
vt 0.727400 0.042800
vt 0.717900 0.051800
vt 0.717900 0.051700
vt 0.709100 0.042700
vt 0.709300 0.042800
vt 0.724700 0.042300
vt 0.724600 0.042400
vt 0.721100 0.051800
vt 0.721000 0.051700
vt 0.706500 0.043300
vt 0.706700 0.043300
vt 0.721600 0.042000
vt 0.721500 0.042100
vt 0.724300 0.051500
vt 0.724100 0.051400
vt 0.704400 0.044000
vt 0.704700 0.044100
vt 0.727200 0.051000
vt 0.727000 0.050900
vt 0.702800 0.044900
vt 0.703100 0.044900
vt 0.729700 0.050400
vt 0.729500 0.050300
vt 0.701800 0.045800
vt 0.702100 0.045800
vt 0.731800 0.049700
vt 0.731500 0.049600
vt 0.701400 0.046800
vt 0.701800 0.046800
vt 0.733400 0.048800
vt 0.733100 0.048800
vt 0.701700 0.047800
vt 0.702000 0.047700
vt 0.734400 0.047900
vt 0.734100 0.047900
vt 0.702600 0.048700
vt 0.702900 0.048700
vt 0.734800 0.046900
vt 0.734400 0.046900
vt 0.704100 0.049600
vt 0.704400 0.049500
vt 0.734500 0.045900
vt 0.734200 0.046000
vt 0.706200 0.050300
vt 0.706400 0.050300
vt 0.733600 0.045000
vt 0.733300 0.045000
vt 0.708600 0.051000
vt 0.708800 0.050900
vt 0.715100 0.041900
vt 0.715100 0.041800
vt 0.718400 0.041700
vt 0.718400 0.041800
vt 0.730200 0.043400
vt 0.730400 0.043300
vt 0.732400 0.044100
vt 0.732200 0.044100
vt 0.714500 0.051800
vt 0.714500 0.051800
vt 0.711300 0.051500
vt 0.711400 0.051500
vt 0.712000 0.042200
vt 0.711900 0.042100
vt 0.727700 0.042700
vt 0.727800 0.042700
vt 0.717800 0.051900
vt 0.717800 0.052000
vt 0.709100 0.042600
vt 0.708900 0.042600
vt 0.724800 0.042200
vt 0.724900 0.042200
vt 0.721100 0.051800
vt 0.721100 0.051900
vt 0.706500 0.043200
vt 0.706300 0.043200
vt 0.721700 0.041900
vt 0.721700 0.041900
vt 0.724200 0.051500
vt 0.724400 0.051600
vt 0.704300 0.044000
vt 0.704100 0.043900
vt 0.727200 0.051100
vt 0.727300 0.051100
vt 0.702700 0.044800
vt 0.702500 0.044800
vt 0.729700 0.050500
vt 0.729900 0.050500
vt 0.701700 0.045800
vt 0.701400 0.045800
vt 0.731900 0.049700
vt 0.732100 0.049800
vt 0.701300 0.046800
vt 0.701100 0.046800
vt 0.733500 0.048900
vt 0.733700 0.048900
vt 0.701600 0.047700
vt 0.701300 0.047800
vt 0.734500 0.047900
vt 0.734800 0.047900
vt 0.702500 0.048700
vt 0.702200 0.048700
vt 0.734900 0.046900
vt 0.735200 0.046900
vt 0.704000 0.049600
vt 0.703800 0.049600
vt 0.734600 0.046000
vt 0.734900 0.045900
vt 0.706000 0.050300
vt 0.705900 0.050400
vt 0.733700 0.045000
vt 0.734000 0.045000
vt 0.708500 0.051000
vt 0.708400 0.051100
vt 0.996900 0.906400
vt 0.999000 0.912100
vt 0.900300 0.912200
vt 0.803400 0.906700
vt 0.808800 0.901200
vt 0.991000 0.901000
vt 0.801700 0.912300
vt 0.981700 0.896000
vt 0.803800 0.918000
vt 0.969300 0.891600
vt 0.809700 0.923400
vt 0.954200 0.888000
vt 0.819000 0.928400
vt 0.937000 0.885400
vt 0.920700 0.940600
vt 0.901500 0.941200
vt 0.831400 0.932800
vt 0.918500 0.883700
vt 0.939200 0.938900
vt 0.846500 0.936400
vt 0.899200 0.883200
vt 0.956100 0.936200
vt 0.863700 0.939000
vt 0.880000 0.883800
vt 0.970900 0.932600
vt 0.882200 0.940600
vt 0.861500 0.885500
vt 0.983000 0.928200
vt 0.844600 0.888200
vt 0.991900 0.923200
vt 0.829800 0.891800
vt 0.997300 0.917700
vt 0.817700 0.896200
vn 0.0000 1.0000 0.0000
vn -0.1420 -0.6857 -0.7139
vn 0.0000 -0.6857 -0.7279
vn -0.0000 -1.0000 -0.0000
vn 0.5147 -0.6857 -0.5147
vn 0.6052 -0.6857 -0.4044
vn -0.1420 -0.6857 0.7139
vn -0.2786 -0.6857 0.6725
vn -0.2786 -0.6857 -0.6725
vn 0.4044 -0.6857 -0.6052
vn -0.0000 -0.6857 0.7279
vn -0.4044 -0.6857 -0.6052
vn 0.2785 -0.6857 -0.6725
vn 0.1420 -0.6857 0.7139
vn -0.5147 -0.6857 -0.5147
vn 0.1420 -0.6857 -0.7139
vn 0.2786 -0.6857 0.6725
vn -0.6052 -0.6857 -0.4044
vn 0.4044 -0.6857 0.6052
vn -0.6725 -0.6857 -0.2785
vn 0.5147 -0.6857 0.5147
vn -0.7139 -0.6857 -0.1420
vn 0.6052 -0.6857 0.4044
vn -0.7279 -0.6857 -0.0000
vn 0.6725 -0.6857 0.2786
vn -0.7139 -0.6857 0.1420
vn 0.7139 -0.6857 0.1420
vn -0.6725 -0.6857 0.2785
vn 0.7279 -0.6857 -0.0000
vn -0.6052 -0.6857 0.4044
vn 0.7139 -0.6857 -0.1420
vn -0.5147 -0.6857 0.5147
vn 0.6725 -0.6857 -0.2786
vn -0.4044 -0.6857 0.6052
vn -0.1420 0.6857 -0.7139
vn 0.0000 0.6857 -0.7279
vn 0.5147 0.6857 -0.5147
vn 0.6052 0.6857 -0.4044
vn -0.1420 0.6857 0.7139
vn -0.2786 0.6857 0.6725
vn -0.2786 0.6857 -0.6725
vn 0.4044 0.6857 -0.6052
vn -0.0000 0.6857 0.7279
vn -0.4044 0.6857 -0.6052
vn 0.2785 0.6857 -0.6725
vn 0.1420 0.6857 0.7139
vn -0.5147 0.6857 -0.5147
vn 0.1420 0.6857 -0.7139
vn 0.2786 0.6857 0.6725
vn -0.6052 0.6857 -0.4044
vn 0.4044 0.6857 0.6052
vn -0.6725 0.6857 -0.2785
vn 0.5147 0.6857 0.5147
vn -0.7139 0.6857 -0.1420
vn 0.6052 0.6857 0.4044
vn -0.7279 0.6857 -0.0000
vn 0.6725 0.6857 0.2785
vn -0.7139 0.6857 0.1420
vn 0.7139 0.6857 0.1420
vn -0.6725 0.6857 0.2785
vn 0.7279 0.6857 -0.0000
vn -0.6052 0.6857 0.4044
vn 0.7139 0.6857 -0.1420
vn -0.5147 0.6857 0.5147
vn 0.6725 0.6857 -0.2786
vn -0.4044 0.6857 0.6052
usemtl Chip_Front_HQ
s 1
f 1/1/1 2/2/1 3/3/1
f 4/4/1 2/2/1 5/5/1
f 6/6/1 2/2/1 1/1/1
f 7/7/1 2/2/1 4/4/1
f 8/8/1 2/2/1 6/6/1
f 9/9/1 2/2/1 7/7/1
f 10/10/1 2/2/1 8/8/1
f 11/11/1 2/2/1 9/9/1
f 12/12/1 2/2/1 10/10/1
f 13/13/1 2/2/1 11/11/1
f 14/14/1 2/2/1 12/12/1
f 15/15/1 2/2/1 16/16/1
f 17/17/1 2/2/1 13/13/1
f 18/18/1 2/2/1 14/14/1
f 19/19/1 2/2/1 15/15/1
f 20/20/1 2/2/1 17/17/1
f 21/21/1 2/2/1 18/18/1
f 22/22/1 2/2/1 19/19/1
f 23/23/1 2/2/1 20/20/1
f 24/24/1 2/2/1 21/21/1
f 25/25/1 2/2/1 22/22/1
f 26/26/1 2/2/1 23/23/1
f 27/27/1 2/2/1 24/24/1
f 28/28/1 2/2/1 25/25/1
f 16/16/1 2/2/1 26/26/1
f 29/29/1 2/2/1 27/27/1
f 30/30/1 2/2/1 28/28/1
f 31/31/1 2/2/1 29/29/1
f 32/32/1 2/2/1 30/30/1
f 33/33/1 2/2/1 31/31/1
f 3/3/1 2/2/1 32/32/1
f 5/5/1 2/2/1 33/33/1
usemtl Chip_Edge_HQ
f 34/34/2 35/35/3 36/36/4 37/37/4
f 38/38/5 39/39/6 40/40/4 41/41/4
f 42/42/7 43/43/8 44/44/4 45/45/4
f 46/46/9 34/34/2 37/37/4 47/47/4
f 48/48/10 38/38/5 41/41/4 49/49/4
f 50/50/11 42/42/7 45/45/4 51/51/4
f 52/52/12 46/46/9 47/47/4 53/53/4
f 54/54/13 48/48/10 49/49/4 55/55/4
f 56/56/14 50/50/11 51/51/4 57/57/4
f 58/58/15 52/52/12 53/53/4 59/59/4
f 60/60/16 54/54/13 55/55/4 61/61/4
f 62/62/17 56/56/14 57/57/4 63/63/4
f 64/64/18 58/58/15 59/59/4 65/65/4
f 35/35/3 60/60/16 61/61/4 36/36/4
f 66/66/19 62/62/17 63/63/4 67/67/4
f 68/68/20 64/64/18 65/65/4 69/69/4
f 70/70/21 66/66/19 67/67/4 71/71/4
f 72/72/22 68/68/20 69/69/4 73/73/4
f 74/74/23 70/70/21 71/71/4 75/75/4
f 76/76/24 72/72/22 73/73/4 77/77/4
f 78/78/25 74/74/23 75/75/4 79/79/4
f 80/80/26 76/76/24 77/77/4 81/81/4
f 82/82/27 78/78/25 79/79/4 83/83/4
f 84/84/28 80/80/26 81/81/4 85/85/4
f 86/86/29 82/82/27 83/83/4 87/87/4
f 88/88/30 84/84/28 85/85/4 89/89/4
f 90/90/31 86/86/29 87/87/4 91/91/4
f 92/92/32 88/88/30 89/89/4 93/93/4
f 94/94/33 90/90/31 91/91/4 95/95/4
f 96/96/34 92/92/32 93/93/4 97/97/4
f 39/39/6 94/94/33 95/95/4 40/40/4
f 43/43/8 96/96/34 97/97/4 44/44/4
f 98/98/35 15/99/1 16/100/1 99/101/36
f 100/102/37 17/103/1 13/104/1 101/105/38
f 102/106/39 18/107/1 14/108/1 103/109/40
f 104/110/41 19/111/1 15/99/1 98/98/35
f 105/112/42 20/113/1 17/103/1 100/102/37
f 106/114/43 21/115/1 18/107/1 102/106/39
f 107/116/44 22/117/1 19/111/1 104/110/41
f 108/118/45 23/119/1 20/113/1 105/112/42
f 109/120/46 24/121/1 21/115/1 106/114/43
f 110/122/47 25/123/1 22/117/1 107/116/44
f 111/124/48 26/125/1 23/119/1 108/118/45
f 112/126/49 27/127/1 24/121/1 109/120/46
f 113/128/50 28/129/1 25/123/1 110/122/47
f 99/101/36 16/100/1 26/125/1 111/124/48
f 114/130/51 29/131/1 27/127/1 112/126/49
f 115/132/52 30/133/1 28/129/1 113/128/50
f 116/134/53 31/135/1 29/131/1 114/130/51
f 117/136/54 32/137/1 30/133/1 115/132/52
f 118/138/55 33/139/1 31/135/1 116/134/53
f 119/140/56 3/141/1 32/137/1 117/136/54
f 120/142/57 5/143/1 33/139/1 118/138/55
f 121/144/58 1/145/1 3/141/1 119/140/56
f 122/146/59 4/147/1 5/143/1 120/142/57
f 123/148/60 6/149/1 1/145/1 121/144/58
f 124/150/61 7/151/1 4/147/1 122/146/59
f 125/152/62 8/153/1 6/149/1 123/148/60
f 126/154/63 9/155/1 7/151/1 124/150/61
f 127/156/64 10/157/1 8/153/1 125/152/62
f 128/158/65 11/159/1 9/155/1 126/154/63
f 129/160/66 12/161/1 10/157/1 127/156/64
f 101/105/38 13/104/1 11/159/1 128/158/65
f 103/109/40 14/108/1 12/161/1 129/160/66
f 34/34/2 98/98/35 99/101/36 35/35/3
f 38/38/5 100/102/37 101/105/38 39/39/6
f 42/42/7 102/106/39 103/109/40 43/43/8
f 46/46/9 104/110/41 98/98/35 34/34/2
f 48/48/10 105/112/42 100/102/37 38/38/5
f 50/50/11 106/114/43 102/106/39 42/42/7
f 52/52/12 107/116/44 104/110/41 46/46/9
f 54/54/13 108/118/45 105/112/42 48/48/10
f 56/56/14 109/120/46 106/114/43 50/50/11
f 58/58/15 110/122/47 107/116/44 52/52/12
f 60/60/16 111/124/48 108/118/45 54/54/13
f 62/62/17 112/126/49 109/120/46 56/56/14
f 64/64/18 113/128/50 110/122/47 58/58/15
f 35/35/3 99/101/36 111/124/48 60/60/16
f 66/66/19 114/130/51 112/126/49 62/62/17
f 68/68/20 115/132/52 113/128/50 64/64/18
f 70/70/21 116/134/53 114/130/51 66/66/19
f 72/72/22 117/136/54 115/132/52 68/68/20
f 74/74/23 118/138/55 116/134/53 70/70/21
f 76/76/24 119/140/56 117/136/54 72/72/22
f 78/78/25 120/142/57 118/138/55 74/74/23
f 80/80/26 121/144/58 119/140/56 76/76/24
f 82/82/27 122/146/59 120/142/57 78/78/25
f 84/84/28 123/148/60 121/144/58 80/80/26
f 86/86/29 124/150/61 122/146/59 82/82/27
f 88/88/30 125/152/62 123/148/60 84/84/28
f 90/90/31 126/154/63 124/150/61 86/86/29
f 92/92/32 127/156/64 125/152/62 88/88/30
f 94/94/33 128/158/65 126/154/63 90/90/31
f 96/96/34 129/160/66 127/156/64 92/92/32
f 39/39/6 101/105/38 128/158/65 94/94/33
f 43/43/8 103/109/40 129/160/66 96/96/34
usemtl Chip_Back_HQ
f 81/162/4 77/163/4 130/164/4
f 83/165/4 79/166/4 130/164/4
f 85/167/4 81/162/4 130/164/4
f 87/168/4 83/165/4 130/164/4
f 89/169/4 85/167/4 130/164/4
f 91/170/4 87/168/4 130/164/4
f 93/171/4 89/169/4 130/164/4
f 95/172/4 91/170/4 130/164/4
f 97/173/4 93/171/4 130/164/4
f 40/174/4 95/172/4 130/164/4
f 44/175/4 97/173/4 130/164/4
f 37/176/4 36/177/4 130/164/4
f 41/178/4 40/174/4 130/164/4
f 45/179/4 44/175/4 130/164/4
f 47/180/4 37/176/4 130/164/4
f 49/181/4 41/178/4 130/164/4
f 51/182/4 45/179/4 130/164/4
f 53/183/4 47/180/4 130/164/4
f 55/184/4 49/181/4 130/164/4
f 57/185/4 51/182/4 130/164/4
f 59/186/4 53/183/4 130/164/4
f 61/187/4 55/184/4 130/164/4
f 63/188/4 57/185/4 130/164/4
f 65/189/4 59/186/4 130/164/4
f 36/177/4 61/187/4 130/164/4
f 67/190/4 63/188/4 130/164/4
f 69/191/4 65/189/4 130/164/4
f 71/192/4 67/190/4 130/164/4
f 73/193/4 69/191/4 130/164/4
f 75/194/4 71/192/4 130/164/4
f 77/163/4 73/193/4 130/164/4
f 79/166/4 75/194/4 130/164/4
